<mxfile host="app.diagrams.net" agent="Mozilla/5.0 (Windows NT 10.0; Win64; x64) AppleWebKit/537.36 (KHTML, like Gecko) Chrome/138.0.0.0 Safari/537.36" version="28.0.6">
  <diagram name="PÃ¡gina-1" id="PuR6PXavX1iiZgIphFz7">
    <mxGraphModel grid="1" page="1" gridSize="10" guides="1" tooltips="1" connect="1" arrows="1" fold="1" pageScale="1" pageWidth="827" pageHeight="1169" math="0" shadow="0">
      <root>
        <mxCell id="0" />
        <mxCell id="1" parent="0" />
        <mxCell id="wnuGWgDGQfipznTXfZxU-3" value="" style="shape=partialRectangle;whiteSpace=wrap;html=1;top=0;bottom=0;fillColor=none;rotation=90;" vertex="1" parent="1">
          <mxGeometry x="76.87" y="250" width="65" height="120" as="geometry" />
        </mxCell>
        <mxCell id="wnuGWgDGQfipznTXfZxU-6" value="" style="endArrow=none;html=1;rounded=0;exitX=1;exitY=0;exitDx=0;exitDy=0;" edge="1" parent="1" source="wnuGWgDGQfipznTXfZxU-3">
          <mxGeometry width="50" height="50" relative="1" as="geometry">
            <mxPoint x="213.12" y="316.25" as="sourcePoint" />
            <mxPoint x="203.12" y="306.25" as="targetPoint" />
          </mxGeometry>
        </mxCell>
        <mxCell id="wnuGWgDGQfipznTXfZxU-8" value="" style="endArrow=none;html=1;rounded=0;exitX=0;exitY=0;exitDx=0;exitDy=0;" edge="1" parent="1" source="wnuGWgDGQfipznTXfZxU-3">
          <mxGeometry width="50" height="50" relative="1" as="geometry">
            <mxPoint x="213.12" y="268.25" as="sourcePoint" />
            <mxPoint x="203.12" y="306.25" as="targetPoint" />
          </mxGeometry>
        </mxCell>
        <mxCell id="wnuGWgDGQfipznTXfZxU-11" value="" style="endArrow=none;html=1;rounded=0;entryX=1;entryY=1;entryDx=0;entryDy=0;" edge="1" parent="1" target="wnuGWgDGQfipznTXfZxU-3">
          <mxGeometry width="50" height="50" relative="1" as="geometry">
            <mxPoint x="16.870000000000005" y="310" as="sourcePoint" />
            <mxPoint x="40.120000000000005" y="338.25" as="targetPoint" />
          </mxGeometry>
        </mxCell>
        <mxCell id="wnuGWgDGQfipznTXfZxU-12" value="" style="endArrow=none;html=1;rounded=0;entryX=0;entryY=1;entryDx=0;entryDy=0;" edge="1" parent="1" target="wnuGWgDGQfipznTXfZxU-3">
          <mxGeometry width="50" height="50" relative="1" as="geometry">
            <mxPoint x="16.870000000000005" y="310" as="sourcePoint" />
            <mxPoint x="40.120000000000005" y="280" as="targetPoint" />
          </mxGeometry>
        </mxCell>
        <mxCell id="UejmZ1284YYluyhTjpWx-67" style="edgeStyle=orthogonalEdgeStyle;rounded=0;orthogonalLoop=1;jettySize=auto;html=1;entryX=0;entryY=0.5;entryDx=0;entryDy=0;" edge="1" parent="1" source="wnuGWgDGQfipznTXfZxU-13" target="UejmZ1284YYluyhTjpWx-1">
          <mxGeometry relative="1" as="geometry">
            <Array as="points">
              <mxPoint x="319" y="380" />
              <mxPoint x="109" y="380" />
            </Array>
          </mxGeometry>
        </mxCell>
        <mxCell id="wnuGWgDGQfipznTXfZxU-13" value="" style="shape=partialRectangle;whiteSpace=wrap;html=1;top=0;bottom=0;fillColor=none;rotation=90;" vertex="1" parent="1">
          <mxGeometry x="286.87" y="250" width="65" height="120" as="geometry" />
        </mxCell>
        <mxCell id="wnuGWgDGQfipznTXfZxU-14" value="" style="endArrow=none;html=1;rounded=0;exitX=1;exitY=0;exitDx=0;exitDy=0;" edge="1" parent="1" source="wnuGWgDGQfipznTXfZxU-13">
          <mxGeometry width="50" height="50" relative="1" as="geometry">
            <mxPoint x="423.12" y="316.25" as="sourcePoint" />
            <mxPoint x="413.12" y="306.25" as="targetPoint" />
          </mxGeometry>
        </mxCell>
        <mxCell id="wnuGWgDGQfipznTXfZxU-15" value="" style="endArrow=none;html=1;rounded=0;exitX=0;exitY=0;exitDx=0;exitDy=0;" edge="1" parent="1" source="wnuGWgDGQfipznTXfZxU-13">
          <mxGeometry width="50" height="50" relative="1" as="geometry">
            <mxPoint x="423.12" y="268.25" as="sourcePoint" />
            <mxPoint x="413.12" y="306.25" as="targetPoint" />
          </mxGeometry>
        </mxCell>
        <mxCell id="wnuGWgDGQfipznTXfZxU-16" value="" style="endArrow=none;html=1;rounded=0;entryX=1;entryY=1;entryDx=0;entryDy=0;" edge="1" parent="1" target="wnuGWgDGQfipznTXfZxU-13">
          <mxGeometry width="50" height="50" relative="1" as="geometry">
            <mxPoint x="226.87" y="310" as="sourcePoint" />
            <mxPoint x="250.12" y="338.25" as="targetPoint" />
          </mxGeometry>
        </mxCell>
        <mxCell id="wnuGWgDGQfipznTXfZxU-17" value="" style="endArrow=none;html=1;rounded=0;entryX=0;entryY=1;entryDx=0;entryDy=0;" edge="1" parent="1" target="wnuGWgDGQfipznTXfZxU-13">
          <mxGeometry width="50" height="50" relative="1" as="geometry">
            <mxPoint x="226.87" y="310" as="sourcePoint" />
            <mxPoint x="250.12" y="280" as="targetPoint" />
          </mxGeometry>
        </mxCell>
        <mxCell id="wnuGWgDGQfipznTXfZxU-23" value="&lt;font style=&quot;vertical-align: inherit;&quot;&gt;&lt;font style=&quot;vertical-align: inherit;&quot;&gt;Idle&lt;/font&gt;&lt;/font&gt;" style="text;html=1;align=center;verticalAlign=middle;whiteSpace=wrap;rounded=0;" vertex="1" parent="1">
          <mxGeometry x="-53.129999999999995" y="295" width="60" height="30" as="geometry" />
        </mxCell>
        <mxCell id="wnuGWgDGQfipznTXfZxU-24" value="" style="shape=partialRectangle;whiteSpace=wrap;html=1;top=0;bottom=0;fillColor=none;rotation=90;" vertex="1" parent="1">
          <mxGeometry x="501.25" y="247.5" width="65" height="122.5" as="geometry" />
        </mxCell>
        <mxCell id="wnuGWgDGQfipznTXfZxU-25" value="" style="endArrow=none;html=1;rounded=0;exitX=1;exitY=0;exitDx=0;exitDy=0;" edge="1" parent="1" source="wnuGWgDGQfipznTXfZxU-24">
          <mxGeometry width="50" height="50" relative="1" as="geometry">
            <mxPoint x="636.25" y="315" as="sourcePoint" />
            <mxPoint x="626.25" y="305" as="targetPoint" />
          </mxGeometry>
        </mxCell>
        <mxCell id="wnuGWgDGQfipznTXfZxU-26" value="" style="endArrow=none;html=1;rounded=0;exitX=0;exitY=0;exitDx=0;exitDy=0;" edge="1" parent="1" source="wnuGWgDGQfipznTXfZxU-24">
          <mxGeometry width="50" height="50" relative="1" as="geometry">
            <mxPoint x="636.25" y="267" as="sourcePoint" />
            <mxPoint x="626.25" y="305" as="targetPoint" />
          </mxGeometry>
        </mxCell>
        <mxCell id="wnuGWgDGQfipznTXfZxU-27" value="" style="endArrow=none;html=1;rounded=0;entryX=1;entryY=1;entryDx=0;entryDy=0;" edge="1" parent="1" target="wnuGWgDGQfipznTXfZxU-24">
          <mxGeometry width="50" height="50" relative="1" as="geometry">
            <mxPoint x="440" y="308.75" as="sourcePoint" />
            <mxPoint x="463.25" y="337" as="targetPoint" />
          </mxGeometry>
        </mxCell>
        <mxCell id="wnuGWgDGQfipznTXfZxU-28" value="" style="endArrow=none;html=1;rounded=0;entryX=0;entryY=1;entryDx=0;entryDy=0;" edge="1" parent="1" target="wnuGWgDGQfipznTXfZxU-24">
          <mxGeometry width="50" height="50" relative="1" as="geometry">
            <mxPoint x="440" y="308.75" as="sourcePoint" />
            <mxPoint x="463.25" y="278.75" as="targetPoint" />
          </mxGeometry>
        </mxCell>
        <mxCell id="wnuGWgDGQfipznTXfZxU-58" value="" style="endArrow=classic;html=1;rounded=0;" edge="1" parent="1">
          <mxGeometry width="50" height="50" relative="1" as="geometry">
            <mxPoint x="196.87" y="309.40999999999997" as="sourcePoint" />
            <mxPoint x="226.87" y="309.82000000000005" as="targetPoint" />
          </mxGeometry>
        </mxCell>
        <mxCell id="wnuGWgDGQfipznTXfZxU-63" value="" style="endArrow=classic;html=1;rounded=0;" edge="1" parent="1">
          <mxGeometry width="50" height="50" relative="1" as="geometry">
            <mxPoint x="410" y="308.15999999999997" as="sourcePoint" />
            <mxPoint x="440" y="308.57000000000005" as="targetPoint" />
          </mxGeometry>
        </mxCell>
        <mxCell id="wnuGWgDGQfipznTXfZxU-64" value="" style="endArrow=classic;html=1;rounded=0;" edge="1" parent="1">
          <mxGeometry width="50" height="50" relative="1" as="geometry">
            <mxPoint x="-13.130000000000003" y="309.40999999999997" as="sourcePoint" />
            <mxPoint x="16.870000000000005" y="309.82000000000005" as="targetPoint" />
          </mxGeometry>
        </mxCell>
        <mxCell id="wnuGWgDGQfipznTXfZxU-65" value="&lt;font style=&quot;vertical-align: inherit;&quot;&gt;&lt;font style=&quot;vertical-align: inherit;&quot;&gt;Encuesta&lt;/font&gt;&lt;/font&gt;" style="shape=umlFrame;whiteSpace=wrap;html=1;pointerEvents=0;" vertex="1" parent="1">
          <mxGeometry x="-170" y="190" width="1050" height="450" as="geometry" />
        </mxCell>
        <mxCell id="wnuGWgDGQfipznTXfZxU-66" value="&lt;span style=&quot;text-align: left;&quot;&gt;&lt;font style=&quot;vertical-align: inherit;&quot;&gt;&lt;font style=&quot;vertical-align: inherit;&quot;&gt;Crear Encuesta&lt;/font&gt;&lt;/font&gt;&lt;/span&gt;" style="text;html=1;align=center;verticalAlign=middle;whiteSpace=wrap;rounded=0;" vertex="1" parent="1">
          <mxGeometry x="79.37" y="295" width="60" height="30" as="geometry" />
        </mxCell>
        <mxCell id="wnuGWgDGQfipznTXfZxU-67" value="&lt;span style=&quot;text-align: left;&quot;&gt;&lt;font style=&quot;vertical-align: inherit;&quot;&gt;&lt;font style=&quot;vertical-align: inherit;&quot;&gt;Activar Encuesta&lt;/font&gt;&lt;/font&gt;&lt;/span&gt;" style="text;html=1;align=center;verticalAlign=middle;whiteSpace=wrap;rounded=0;" vertex="1" parent="1">
          <mxGeometry x="286.87" y="295" width="60" height="30" as="geometry" />
        </mxCell>
        <mxCell id="wnuGWgDGQfipznTXfZxU-69" value="&lt;span style=&quot;text-align: left;&quot;&gt;&lt;font style=&quot;vertical-align: inherit;&quot;&gt;&lt;font style=&quot;vertical-align: inherit;&quot;&gt;Revisar Resultados&lt;/font&gt;&lt;/font&gt;&lt;/span&gt;" style="text;html=1;align=center;verticalAlign=middle;whiteSpace=wrap;rounded=0;" vertex="1" parent="1">
          <mxGeometry x="502.5" y="293.75" width="60" height="30" as="geometry" />
        </mxCell>
        <mxCell id="wnuGWgDGQfipznTXfZxU-83" value="{&lt; 1d}" style="text;whiteSpace=wrap;" vertex="1" parent="1">
          <mxGeometry x="87.80000000000001" y="240" width="43.13" height="40" as="geometry" />
        </mxCell>
        <mxCell id="wnuGWgDGQfipznTXfZxU-84" value="&lt;span style=&quot;color: rgb(0, 0, 0); font-family: Helvetica; font-size: 12px; font-style: normal; font-variant-ligatures: normal; font-variant-caps: normal; font-weight: 400; letter-spacing: normal; orphans: 2; text-align: left; text-indent: 0px; text-transform: none; widows: 2; word-spacing: 0px; -webkit-text-stroke-width: 0px; white-space: normal; background-color: rgb(236, 236, 236); text-decoration-thickness: initial; text-decoration-style: initial; text-decoration-color: initial; float: none; display: inline !important;&quot;&gt;&lt;font style=&quot;vertical-align: inherit;&quot;&gt;&lt;font style=&quot;vertical-align: inherit;&quot;&gt;&lt;font style=&quot;vertical-align: inherit;&quot;&gt;&lt;font style=&quot;vertical-align: inherit;&quot;&gt;&lt;font style=&quot;vertical-align: inherit;&quot;&gt;&lt;font style=&quot;vertical-align: inherit;&quot;&gt;{&amp;lt;2d}&lt;/font&gt;&lt;/font&gt;&lt;/font&gt;&lt;/font&gt;&lt;/font&gt;&lt;/font&gt;&lt;/span&gt;" style="text;whiteSpace=wrap;html=1;" vertex="1" parent="1">
          <mxGeometry x="520" y="240" width="40" height="40" as="geometry" />
        </mxCell>
        <mxCell id="wnuGWgDGQfipznTXfZxU-85" value="Administrador" style="text;html=1;align=center;verticalAlign=middle;whiteSpace=wrap;rounded=0;" vertex="1" parent="1">
          <mxGeometry x="-140" y="293.75" width="60" height="30" as="geometry" />
        </mxCell>
        <mxCell id="UejmZ1284YYluyhTjpWx-1" value="" style="shape=partialRectangle;whiteSpace=wrap;html=1;top=0;bottom=0;fillColor=none;rotation=90;" vertex="1" parent="1">
          <mxGeometry x="76.86999999999989" y="390" width="65" height="120" as="geometry" />
        </mxCell>
        <mxCell id="UejmZ1284YYluyhTjpWx-2" value="" style="endArrow=none;html=1;rounded=0;exitX=1;exitY=0;exitDx=0;exitDy=0;" edge="1" parent="1" source="UejmZ1284YYluyhTjpWx-1">
          <mxGeometry width="50" height="50" relative="1" as="geometry">
            <mxPoint x="213.1199999999999" y="456.25" as="sourcePoint" />
            <mxPoint x="203.1199999999999" y="446.25" as="targetPoint" />
          </mxGeometry>
        </mxCell>
        <mxCell id="UejmZ1284YYluyhTjpWx-3" value="" style="endArrow=none;html=1;rounded=0;exitX=0;exitY=0;exitDx=0;exitDy=0;" edge="1" parent="1" source="UejmZ1284YYluyhTjpWx-1">
          <mxGeometry width="50" height="50" relative="1" as="geometry">
            <mxPoint x="213.1199999999999" y="408.25" as="sourcePoint" />
            <mxPoint x="203.1199999999999" y="446.25" as="targetPoint" />
          </mxGeometry>
        </mxCell>
        <mxCell id="UejmZ1284YYluyhTjpWx-4" value="" style="endArrow=none;html=1;rounded=0;entryX=1;entryY=1;entryDx=0;entryDy=0;" edge="1" parent="1" target="UejmZ1284YYluyhTjpWx-1">
          <mxGeometry width="50" height="50" relative="1" as="geometry">
            <mxPoint x="16.870000000000005" y="450" as="sourcePoint" />
            <mxPoint x="40.120000000000005" y="478.25" as="targetPoint" />
          </mxGeometry>
        </mxCell>
        <mxCell id="UejmZ1284YYluyhTjpWx-5" value="" style="endArrow=none;html=1;rounded=0;entryX=0;entryY=1;entryDx=0;entryDy=0;" edge="1" parent="1" target="UejmZ1284YYluyhTjpWx-1">
          <mxGeometry width="50" height="50" relative="1" as="geometry">
            <mxPoint x="16.870000000000005" y="450" as="sourcePoint" />
            <mxPoint x="40.120000000000005" y="420" as="targetPoint" />
          </mxGeometry>
        </mxCell>
        <mxCell id="UejmZ1284YYluyhTjpWx-6" value="" style="shape=partialRectangle;whiteSpace=wrap;html=1;top=0;bottom=0;fillColor=none;rotation=90;" vertex="1" parent="1">
          <mxGeometry x="286.8699999999999" y="390" width="65" height="120" as="geometry" />
        </mxCell>
        <mxCell id="UejmZ1284YYluyhTjpWx-7" value="" style="endArrow=none;html=1;rounded=0;exitX=1;exitY=0;exitDx=0;exitDy=0;" edge="1" parent="1" source="UejmZ1284YYluyhTjpWx-6">
          <mxGeometry width="50" height="50" relative="1" as="geometry">
            <mxPoint x="423.1199999999999" y="456.25" as="sourcePoint" />
            <mxPoint x="413.1199999999999" y="446.25" as="targetPoint" />
          </mxGeometry>
        </mxCell>
        <mxCell id="UejmZ1284YYluyhTjpWx-8" value="" style="endArrow=none;html=1;rounded=0;exitX=0;exitY=0;exitDx=0;exitDy=0;" edge="1" parent="1" source="UejmZ1284YYluyhTjpWx-6">
          <mxGeometry width="50" height="50" relative="1" as="geometry">
            <mxPoint x="423.1199999999999" y="408.25" as="sourcePoint" />
            <mxPoint x="413.1199999999999" y="446.25" as="targetPoint" />
          </mxGeometry>
        </mxCell>
        <mxCell id="UejmZ1284YYluyhTjpWx-9" value="" style="endArrow=none;html=1;rounded=0;entryX=1;entryY=1;entryDx=0;entryDy=0;" edge="1" parent="1" target="UejmZ1284YYluyhTjpWx-6">
          <mxGeometry width="50" height="50" relative="1" as="geometry">
            <mxPoint x="226.8699999999999" y="450" as="sourcePoint" />
            <mxPoint x="250.1199999999999" y="478.25" as="targetPoint" />
          </mxGeometry>
        </mxCell>
        <mxCell id="UejmZ1284YYluyhTjpWx-10" value="" style="endArrow=none;html=1;rounded=0;entryX=0;entryY=1;entryDx=0;entryDy=0;" edge="1" parent="1" target="UejmZ1284YYluyhTjpWx-6">
          <mxGeometry width="50" height="50" relative="1" as="geometry">
            <mxPoint x="226.8699999999999" y="450" as="sourcePoint" />
            <mxPoint x="250.1199999999999" y="420" as="targetPoint" />
          </mxGeometry>
        </mxCell>
        <mxCell id="UejmZ1284YYluyhTjpWx-11" value="&lt;font style=&quot;vertical-align: inherit;&quot;&gt;&lt;font style=&quot;vertical-align: inherit;&quot;&gt;Idle&lt;/font&gt;&lt;/font&gt;" style="text;html=1;align=center;verticalAlign=middle;whiteSpace=wrap;rounded=0;" vertex="1" parent="1">
          <mxGeometry x="-53.129999999999995" y="435" width="60" height="30" as="geometry" />
        </mxCell>
        <mxCell id="UejmZ1284YYluyhTjpWx-12" value="" style="shape=partialRectangle;whiteSpace=wrap;html=1;top=0;bottom=0;fillColor=none;rotation=90;" vertex="1" parent="1">
          <mxGeometry x="501.25" y="387.5" width="65" height="122.5" as="geometry" />
        </mxCell>
        <mxCell id="UejmZ1284YYluyhTjpWx-13" value="" style="endArrow=none;html=1;rounded=0;exitX=1;exitY=0;exitDx=0;exitDy=0;" edge="1" parent="1" source="UejmZ1284YYluyhTjpWx-12">
          <mxGeometry width="50" height="50" relative="1" as="geometry">
            <mxPoint x="636.25" y="455" as="sourcePoint" />
            <mxPoint x="626.25" y="445" as="targetPoint" />
          </mxGeometry>
        </mxCell>
        <mxCell id="UejmZ1284YYluyhTjpWx-14" value="" style="endArrow=none;html=1;rounded=0;exitX=0;exitY=0;exitDx=0;exitDy=0;" edge="1" parent="1" source="UejmZ1284YYluyhTjpWx-12">
          <mxGeometry width="50" height="50" relative="1" as="geometry">
            <mxPoint x="636.25" y="407" as="sourcePoint" />
            <mxPoint x="626.25" y="445" as="targetPoint" />
          </mxGeometry>
        </mxCell>
        <mxCell id="UejmZ1284YYluyhTjpWx-15" value="" style="endArrow=none;html=1;rounded=0;entryX=1;entryY=1;entryDx=0;entryDy=0;" edge="1" parent="1" target="UejmZ1284YYluyhTjpWx-12">
          <mxGeometry width="50" height="50" relative="1" as="geometry">
            <mxPoint x="440" y="448.75" as="sourcePoint" />
            <mxPoint x="463.25" y="477" as="targetPoint" />
          </mxGeometry>
        </mxCell>
        <mxCell id="UejmZ1284YYluyhTjpWx-16" value="" style="endArrow=none;html=1;rounded=0;entryX=0;entryY=1;entryDx=0;entryDy=0;" edge="1" parent="1" target="UejmZ1284YYluyhTjpWx-12">
          <mxGeometry width="50" height="50" relative="1" as="geometry">
            <mxPoint x="440" y="448.75" as="sourcePoint" />
            <mxPoint x="463.25" y="418.75" as="targetPoint" />
          </mxGeometry>
        </mxCell>
        <mxCell id="UejmZ1284YYluyhTjpWx-20" value="" style="endArrow=classic;html=1;rounded=0;" edge="1" parent="1">
          <mxGeometry width="50" height="50" relative="1" as="geometry">
            <mxPoint x="196.8699999999999" y="449.40999999999997" as="sourcePoint" />
            <mxPoint x="226.8699999999999" y="449.82000000000005" as="targetPoint" />
          </mxGeometry>
        </mxCell>
        <mxCell id="UejmZ1284YYluyhTjpWx-22" value="" style="endArrow=classic;html=1;rounded=0;" edge="1" parent="1">
          <mxGeometry width="50" height="50" relative="1" as="geometry">
            <mxPoint x="410" y="448.15999999999997" as="sourcePoint" />
            <mxPoint x="440" y="448.57000000000005" as="targetPoint" />
          </mxGeometry>
        </mxCell>
        <mxCell id="UejmZ1284YYluyhTjpWx-23" value="" style="endArrow=classic;html=1;rounded=0;" edge="1" parent="1">
          <mxGeometry width="50" height="50" relative="1" as="geometry">
            <mxPoint x="-13.129999999999995" y="449.40999999999997" as="sourcePoint" />
            <mxPoint x="16.870000000000005" y="449.82000000000005" as="targetPoint" />
          </mxGeometry>
        </mxCell>
        <mxCell id="UejmZ1284YYluyhTjpWx-24" value="&lt;span style=&quot;text-align: left;&quot;&gt;&lt;font style=&quot;vertical-align: inherit;&quot;&gt;&lt;font style=&quot;vertical-align: inherit;&quot;&gt;Acceder a Encuesta&lt;/font&gt;&lt;/font&gt;&lt;/span&gt;" style="text;html=1;align=center;verticalAlign=middle;whiteSpace=wrap;rounded=0;" vertex="1" parent="1">
          <mxGeometry x="79.36999999999989" y="435" width="60" height="30" as="geometry" />
        </mxCell>
        <mxCell id="UejmZ1284YYluyhTjpWx-25" value="&lt;span style=&quot;text-align: left;&quot;&gt;&lt;font style=&quot;vertical-align: inherit;&quot;&gt;&lt;font style=&quot;vertical-align: inherit;&quot;&gt;Responder Encuesta&lt;/font&gt;&lt;/font&gt;&lt;/span&gt;" style="text;html=1;align=center;verticalAlign=middle;whiteSpace=wrap;rounded=0;" vertex="1" parent="1">
          <mxGeometry x="291.8699999999999" y="435" width="60" height="30" as="geometry" />
        </mxCell>
        <mxCell id="UejmZ1284YYluyhTjpWx-26" value="&lt;span style=&quot;text-align: left;&quot;&gt;&lt;font style=&quot;vertical-align: inherit;&quot;&gt;&lt;font style=&quot;vertical-align: inherit;&quot;&gt;Enviar&lt;/font&gt;&lt;/font&gt;&lt;/span&gt;" style="text;html=1;align=center;verticalAlign=middle;whiteSpace=wrap;rounded=0;" vertex="1" parent="1">
          <mxGeometry x="502.5" y="433.75" width="60" height="30" as="geometry" />
        </mxCell>
        <mxCell id="UejmZ1284YYluyhTjpWx-30" value="&lt;font style=&quot;vertical-align: inherit;&quot;&gt;&lt;font style=&quot;vertical-align: inherit;&quot;&gt;Cliente&lt;/font&gt;&lt;/font&gt;" style="text;html=1;align=center;verticalAlign=middle;whiteSpace=wrap;rounded=0;" vertex="1" parent="1">
          <mxGeometry x="-140" y="433.75" width="60" height="30" as="geometry" />
        </mxCell>
        <mxCell id="UejmZ1284YYluyhTjpWx-31" value="{15min-30min}" style="text;whiteSpace=wrap;" vertex="1" parent="1">
          <mxGeometry x="279.3699999999999" y="388.75" width="80" height="40" as="geometry" />
        </mxCell>
        <mxCell id="UejmZ1284YYluyhTjpWx-33" value="" style="shape=partialRectangle;whiteSpace=wrap;html=1;top=0;bottom=0;fillColor=none;rotation=90;" vertex="1" parent="1">
          <mxGeometry x="76.87" y="505" width="65" height="120" as="geometry" />
        </mxCell>
        <mxCell id="UejmZ1284YYluyhTjpWx-34" value="" style="endArrow=none;html=1;rounded=0;exitX=1;exitY=0;exitDx=0;exitDy=0;" edge="1" parent="1" source="UejmZ1284YYluyhTjpWx-33">
          <mxGeometry width="50" height="50" relative="1" as="geometry">
            <mxPoint x="213.12" y="571.25" as="sourcePoint" />
            <mxPoint x="203.12" y="561.25" as="targetPoint" />
          </mxGeometry>
        </mxCell>
        <mxCell id="UejmZ1284YYluyhTjpWx-35" value="" style="endArrow=none;html=1;rounded=0;exitX=0;exitY=0;exitDx=0;exitDy=0;" edge="1" parent="1" source="UejmZ1284YYluyhTjpWx-33">
          <mxGeometry width="50" height="50" relative="1" as="geometry">
            <mxPoint x="213.12" y="523.25" as="sourcePoint" />
            <mxPoint x="203.12" y="561.25" as="targetPoint" />
          </mxGeometry>
        </mxCell>
        <mxCell id="UejmZ1284YYluyhTjpWx-36" value="" style="endArrow=none;html=1;rounded=0;entryX=1;entryY=1;entryDx=0;entryDy=0;" edge="1" parent="1" target="UejmZ1284YYluyhTjpWx-33">
          <mxGeometry width="50" height="50" relative="1" as="geometry">
            <mxPoint x="16.870000000000005" y="565" as="sourcePoint" />
            <mxPoint x="40.120000000000005" y="593.25" as="targetPoint" />
          </mxGeometry>
        </mxCell>
        <mxCell id="UejmZ1284YYluyhTjpWx-37" value="" style="endArrow=none;html=1;rounded=0;entryX=0;entryY=1;entryDx=0;entryDy=0;" edge="1" parent="1" target="UejmZ1284YYluyhTjpWx-33">
          <mxGeometry width="50" height="50" relative="1" as="geometry">
            <mxPoint x="16.870000000000005" y="565" as="sourcePoint" />
            <mxPoint x="40.120000000000005" y="535" as="targetPoint" />
          </mxGeometry>
        </mxCell>
        <mxCell id="UejmZ1284YYluyhTjpWx-38" value="" style="shape=partialRectangle;whiteSpace=wrap;html=1;top=0;bottom=0;fillColor=none;rotation=90;" vertex="1" parent="1">
          <mxGeometry x="286.87" y="505" width="65" height="120" as="geometry" />
        </mxCell>
        <mxCell id="UejmZ1284YYluyhTjpWx-39" value="" style="endArrow=none;html=1;rounded=0;exitX=1;exitY=0;exitDx=0;exitDy=0;" edge="1" parent="1" source="UejmZ1284YYluyhTjpWx-38">
          <mxGeometry width="50" height="50" relative="1" as="geometry">
            <mxPoint x="423.12" y="571.25" as="sourcePoint" />
            <mxPoint x="413.12" y="561.25" as="targetPoint" />
          </mxGeometry>
        </mxCell>
        <mxCell id="UejmZ1284YYluyhTjpWx-40" value="" style="endArrow=none;html=1;rounded=0;exitX=0;exitY=0;exitDx=0;exitDy=0;" edge="1" parent="1" source="UejmZ1284YYluyhTjpWx-38">
          <mxGeometry width="50" height="50" relative="1" as="geometry">
            <mxPoint x="423.12" y="523.25" as="sourcePoint" />
            <mxPoint x="413.12" y="561.25" as="targetPoint" />
          </mxGeometry>
        </mxCell>
        <mxCell id="UejmZ1284YYluyhTjpWx-41" value="" style="endArrow=none;html=1;rounded=0;entryX=1;entryY=1;entryDx=0;entryDy=0;" edge="1" parent="1" target="UejmZ1284YYluyhTjpWx-38">
          <mxGeometry width="50" height="50" relative="1" as="geometry">
            <mxPoint x="226.87" y="565" as="sourcePoint" />
            <mxPoint x="250.12" y="593.25" as="targetPoint" />
          </mxGeometry>
        </mxCell>
        <mxCell id="UejmZ1284YYluyhTjpWx-42" value="" style="endArrow=none;html=1;rounded=0;entryX=0;entryY=1;entryDx=0;entryDy=0;" edge="1" parent="1" target="UejmZ1284YYluyhTjpWx-38">
          <mxGeometry width="50" height="50" relative="1" as="geometry">
            <mxPoint x="226.87" y="565" as="sourcePoint" />
            <mxPoint x="250.12" y="535" as="targetPoint" />
          </mxGeometry>
        </mxCell>
        <mxCell id="UejmZ1284YYluyhTjpWx-43" value="&lt;font style=&quot;vertical-align: inherit;&quot;&gt;&lt;font style=&quot;vertical-align: inherit;&quot;&gt;Idle&lt;/font&gt;&lt;/font&gt;" style="text;html=1;align=center;verticalAlign=middle;whiteSpace=wrap;rounded=0;" vertex="1" parent="1">
          <mxGeometry x="-53.129999999999995" y="550" width="60" height="30" as="geometry" />
        </mxCell>
        <mxCell id="UejmZ1284YYluyhTjpWx-52" value="" style="endArrow=classic;html=1;rounded=0;" edge="1" parent="1">
          <mxGeometry width="50" height="50" relative="1" as="geometry">
            <mxPoint x="196.87" y="564.41" as="sourcePoint" />
            <mxPoint x="226.87" y="564.82" as="targetPoint" />
          </mxGeometry>
        </mxCell>
        <mxCell id="UejmZ1284YYluyhTjpWx-55" value="" style="endArrow=classic;html=1;rounded=0;" edge="1" parent="1">
          <mxGeometry width="50" height="50" relative="1" as="geometry">
            <mxPoint x="-13.130000000000003" y="564.41" as="sourcePoint" />
            <mxPoint x="16.870000000000005" y="564.82" as="targetPoint" />
          </mxGeometry>
        </mxCell>
        <mxCell id="UejmZ1284YYluyhTjpWx-56" value="&lt;span style=&quot;text-align: left;&quot;&gt;&lt;font style=&quot;vertical-align: inherit;&quot;&gt;&lt;font style=&quot;vertical-align: inherit;&quot;&gt;Validar Respuestas&lt;/font&gt;&lt;/font&gt;&lt;/span&gt;" style="text;html=1;align=center;verticalAlign=middle;whiteSpace=wrap;rounded=0;" vertex="1" parent="1">
          <mxGeometry x="79.37" y="550" width="60" height="30" as="geometry" />
        </mxCell>
        <mxCell id="UejmZ1284YYluyhTjpWx-57" value="&lt;span style=&quot;text-align: left;&quot;&gt;&lt;font style=&quot;vertical-align: inherit;&quot;&gt;&lt;font style=&quot;vertical-align: inherit;&quot;&gt;Almacenar Respuestas&lt;/font&gt;&lt;/font&gt;&lt;/span&gt;" style="text;html=1;align=center;verticalAlign=middle;whiteSpace=wrap;rounded=0;" vertex="1" parent="1">
          <mxGeometry x="291.87" y="550" width="60" height="30" as="geometry" />
        </mxCell>
        <mxCell id="UejmZ1284YYluyhTjpWx-62" value="&lt;font style=&quot;vertical-align: inherit;&quot;&gt;&lt;font style=&quot;vertical-align: inherit;&quot;&gt;Sistema&lt;/font&gt;&lt;/font&gt;" style="text;html=1;align=center;verticalAlign=middle;whiteSpace=wrap;rounded=0;" vertex="1" parent="1">
          <mxGeometry x="-140" y="548.75" width="60" height="30" as="geometry" />
        </mxCell>
        <mxCell id="UejmZ1284YYluyhTjpWx-65" value="" style="endArrow=classic;html=1;rounded=0;edgeStyle=orthogonalEdgeStyle;entryX=0;entryY=0.5;entryDx=0;entryDy=0;" edge="1" parent="1" target="UejmZ1284YYluyhTjpWx-33">
          <mxGeometry width="50" height="50" relative="1" as="geometry">
            <mxPoint x="624" y="448.51" as="sourcePoint" />
            <mxPoint x="410" y="560" as="targetPoint" />
            <Array as="points">
              <mxPoint x="664" y="448" />
              <mxPoint x="664" y="510" />
              <mxPoint x="109" y="510" />
            </Array>
          </mxGeometry>
        </mxCell>
        <mxCell id="UejmZ1284YYluyhTjpWx-66" value="" style="endArrow=classic;html=1;rounded=0;edgeStyle=orthogonalEdgeStyle;exitX=1;exitY=0;exitDx=0;exitDy=0;" edge="1" parent="1" source="UejmZ1284YYluyhTjpWx-38">
          <mxGeometry width="50" height="50" relative="1" as="geometry">
            <mxPoint x="734" y="530" as="sourcePoint" />
            <mxPoint x="620" y="309.3939208984375" as="targetPoint" />
            <Array as="points">
              <mxPoint x="379" y="600" />
              <mxPoint x="774" y="600" />
              <mxPoint x="774" y="309" />
            </Array>
          </mxGeometry>
        </mxCell>
        <mxCell id="UejmZ1284YYluyhTjpWx-68" value="{&lt; 1min}" style="text;whiteSpace=wrap;" vertex="1" parent="1">
          <mxGeometry x="50" y="500" width="54.69" height="40" as="geometry" />
        </mxCell>
        <mxCell id="UejmZ1284YYluyhTjpWx-69" value="{&lt; 1min}" style="text;whiteSpace=wrap;" vertex="1" parent="1">
          <mxGeometry x="286.87" y="505" width="54.69" height="40" as="geometry" />
        </mxCell>
      </root>
    </mxGraphModel>
  </diagram>
</mxfile>
